<svg width="20" height="20" viewBox="0 0 20 20" fill="none" xmlns="http://www.w3.org/2000/svg">
<rect width="20" height="20" rx="10" fill="white"/>
<path d="M9.42782 1.01654C8.39863 1.17536 7.60887 1.5255 6.86557 2.1572C6.00791 2.87913 5.42185 3.91872 5.23245 5.03411C5.20029 5.22181 5.1717 5.38064 5.16455 5.38425C5.15741 5.39147 5.03233 5.42035 4.88582 5.44922C3.78516 5.6658 2.86318 6.37691 2.35573 7.40567C2.08057 7.96156 1.97336 8.50662 2.00552 9.16719C2.08414 10.8782 3.33489 12.2715 5.03948 12.5459C5.18957 12.5711 5.41113 12.5856 5.53263 12.5747C5.71488 12.5603 5.76849 12.5422 5.85783 12.4484C6.05437 12.2535 6.02578 11.9142 5.80065 11.7662C5.74704 11.7301 5.57551 11.6976 5.35753 11.6795C4.67498 11.6182 4.13894 11.3619 3.65651 10.871C3.32417 10.528 3.17051 10.2826 3.02042 9.84942C2.87033 9.41265 2.84174 8.80984 2.95609 8.35502C3.24555 7.18187 4.1854 6.39135 5.41828 6.28306C5.7399 6.25418 5.89356 6.18199 5.97218 6.02316C6.00077 5.96902 6.04008 5.738 6.06509 5.51781C6.2402 3.82126 7.38374 2.45319 8.99184 2.01281C9.30631 1.92618 9.39923 1.91896 9.99959 1.91896C10.5678 1.91896 10.7036 1.92979 10.9537 1.99476C12.6119 2.43875 13.7661 3.79238 13.9341 5.48171C13.9984 6.14589 14.077 6.23974 14.5988 6.28306C16.0532 6.40579 17.111 7.53562 17.1181 8.97227C17.1217 9.44875 17.0502 9.75196 16.8394 10.196C16.7 10.4847 16.625 10.5858 16.3462 10.8637C15.8316 11.3835 15.3421 11.6182 14.6416 11.6795C14.4237 11.6976 14.2628 11.7301 14.2057 11.7698C14.1128 11.8311 14.002 12.0261 14.002 12.1271C14.002 12.2535 14.1092 12.4376 14.2235 12.5134C14.3272 12.5783 14.3808 12.5856 14.681 12.5711C15.2992 12.5386 16.0067 12.2896 16.5178 11.9178C16.9895 11.5749 17.4755 10.9829 17.7006 10.4703C17.8936 10.0299 17.9722 9.67255 17.9936 9.16358C18.0187 8.59686 17.9722 8.26838 17.8114 7.79913C17.379 6.54296 16.3034 5.64415 14.9633 5.42035L14.8382 5.39869L14.7739 5.04494C14.5988 4.03784 14.1485 3.1643 13.4302 2.43514C12.6655 1.65906 11.722 1.18258 10.6643 1.03459C10.407 0.998489 9.62793 0.98766 9.42782 1.01654Z" fill="black"/>
<path d="M9.73157 3.89706C9.43496 3.96925 9.20983 4.0992 8.97754 4.33022C8.73097 4.5829 8.59517 4.8428 8.53085 5.18933C8.39863 5.91487 8.84532 6.69095 9.54574 6.94724L9.64223 6.98695V10.3367V13.6901L9.46712 13.802C8.80601 14.2352 8.87391 15.2639 9.58505 15.643C9.74229 15.726 9.81018 15.7404 10.0711 15.7404C10.3176 15.7404 10.4034 15.726 10.5249 15.6574C10.7608 15.5311 10.918 15.3722 11.0252 15.152C11.1646 14.8669 11.1646 14.4915 11.0288 14.2244C10.9394 14.0475 10.6464 13.737 10.5714 13.737C10.5463 13.737 10.5356 12.6397 10.5356 10.3692V7.00138L10.7608 6.8967C11.0431 6.76676 11.3826 6.43105 11.5112 6.1495C11.5648 6.0376 11.6256 5.83185 11.6506 5.69468C11.8364 4.60095 10.8001 3.63355 9.73157 3.89706ZM10.3498 4.80309C10.9251 5.04855 10.9251 5.85712 10.3498 6.10257C10.0067 6.24696 9.61721 6.08814 9.45998 5.74161C9.19911 5.17128 9.77802 4.56485 10.3498 4.80309Z" fill="black"/>
<path d="M6.95488 6.70177C6.15083 6.82811 5.78632 7.8316 6.32593 8.44886C6.40455 8.5391 6.54034 8.65461 6.62611 8.70514L6.78692 8.79899L6.7762 11.6579L6.76548 14.5167L6.66899 14.6647C6.51533 14.8994 6.34022 14.9643 5.86851 14.9643H5.47542L5.42897 14.8272C5.23242 14.2785 4.67137 13.8598 4.07459 13.8201C3.05612 13.7479 2.26994 14.5961 2.39144 15.6321C2.49507 16.484 3.33486 17.1157 4.18537 16.9821C4.69281 16.9027 5.20741 16.5129 5.39323 16.0689L5.47542 15.8667H5.81491C6.00431 15.8667 6.25089 15.8523 6.36881 15.8306C6.86554 15.7476 7.29794 15.4228 7.50878 14.9715L7.62313 14.7297L7.63385 11.7373L7.641 8.74846L7.85184 8.5391C8.00551 8.38749 8.07698 8.28281 8.12701 8.13842C8.39145 7.32986 7.77322 6.57182 6.95488 6.70177ZM4.2747 14.7875C4.70353 14.9968 4.76786 15.6321 4.38906 15.9498C3.94594 16.3288 3.26696 15.9895 3.26339 15.3903C3.26339 15.2206 3.28125 15.1592 3.37417 15.0293C3.58501 14.7225 3.94236 14.6286 4.2747 14.7875Z" fill="black"/>
<path d="M12.6869 6.70535C12.2438 6.77393 11.9043 7.11324 11.8186 7.57889C11.7507 7.96151 11.9401 8.42716 12.2545 8.63652L12.3939 8.73038V11.6037C12.3939 14.7369 12.3903 14.6972 12.5976 15.0798C12.7227 15.3072 13.0264 15.596 13.2587 15.7043C13.4946 15.8126 13.8198 15.8667 14.2379 15.8667H14.5631L14.681 16.1049C15.2385 17.2492 16.8359 17.2998 17.4791 16.1916C17.9329 15.4047 17.6042 14.3651 16.7715 13.9644C15.9818 13.5854 15.0491 13.9247 14.6774 14.7297L14.5666 14.9643H14.1878C13.7376 14.9643 13.5696 14.9029 13.4088 14.69L13.3052 14.5564L13.2944 11.6578L13.2873 8.76286L13.4124 8.68345C13.5946 8.56794 13.809 8.30443 13.8734 8.11673C13.9913 7.77381 13.9127 7.33343 13.684 7.05909C13.4696 6.79198 13.0622 6.6512 12.6869 6.70535ZM16.4749 14.8163C16.8644 15.087 16.8966 15.6465 16.5392 15.9497C16.3213 16.1374 16.0675 16.1627 15.7959 16.0255C15.4958 15.8739 15.3457 15.5454 15.4279 15.2278C15.4779 15.0437 15.6101 14.8777 15.7852 14.7838C15.9675 14.6827 16.3034 14.7008 16.4749 14.8163Z" fill="black"/>
</svg>
