<svg width="48" height="48" viewBox="0 0 48 48" fill="none" xmlns="http://www.w3.org/2000/svg">
<path d="M22.2834 0.0496141C19.1959 0.526092 16.8266 1.57651 14.5967 3.47159C12.0237 5.6374 10.2656 8.75616 9.69735 12.1023C9.60087 12.6654 9.5151 13.1419 9.49366 13.1528C9.47222 13.1744 9.097 13.261 8.65745 13.3477C5.35547 13.9974 2.58954 16.1307 1.0672 19.217C0.241705 20.8847 -0.0799162 22.5199 0.0165701 24.5016C0.252425 29.6345 4.00467 33.8146 9.11844 34.6376C9.56871 34.7134 10.2334 34.7567 10.5979 34.7242C11.1446 34.6809 11.3055 34.6267 11.5735 34.3452C12.1631 33.7604 12.0773 32.7425 11.4019 32.2985C11.2411 32.1902 10.7265 32.0927 10.0726 32.0386C8.02493 31.8545 6.41682 31.0856 4.96953 29.6129C3.97251 28.5841 3.51152 27.8478 3.06125 26.5483C2.61098 25.238 2.52521 23.4295 2.86827 22.065C3.73665 18.5456 6.55619 16.1741 10.2548 15.8492C11.2197 15.7625 11.6807 15.546 11.9165 15.0695C12.0023 14.9071 12.1202 14.214 12.1953 13.5534C12.7206 8.46378 16.1512 4.35957 20.9755 3.03843C21.9189 2.77853 22.1977 2.75687 23.9988 2.75687C25.7033 2.75687 26.1107 2.78936 26.8612 2.98428C31.8356 4.31626 35.2984 8.37714 35.8022 13.4451C35.9952 15.4377 36.2311 15.7192 37.7963 15.8492C42.1596 16.2174 45.3329 19.6069 45.3544 23.9168C45.3651 25.3462 45.1507 26.2559 44.5182 27.5879C44.1001 28.4542 43.8749 28.7574 43.0387 29.5912C41.4949 31.1506 40.0262 31.8545 37.9249 32.0386C37.271 32.0927 36.7885 32.1902 36.617 32.3093C36.3383 32.4934 36.0059 33.0782 36.0059 33.3814C36.0059 33.7604 36.3276 34.3127 36.6706 34.5401C36.9815 34.735 37.1423 34.7567 38.0429 34.7134C39.8975 34.6159 42.0202 33.8687 43.5533 32.7533C44.9684 31.7246 46.4264 29.9486 47.1018 28.4109C47.6808 27.0897 47.9166 26.0176 47.9809 24.4908C48.056 22.7906 47.9166 21.8052 47.4342 20.3974C46.137 16.6289 42.9101 13.9324 38.8898 13.261L38.5146 13.1961L38.3216 12.1348C37.7963 9.11352 36.4455 6.49289 34.2906 4.30543C31.9964 1.97718 29.1661 0.54775 25.9928 0.103759C25.2209 -0.00453104 22.8838 -0.0370182 22.2834 0.0496141Z" fill="black"/>
<path d="M23.1947 8.69118C22.3049 8.90776 21.6295 9.29761 20.9326 9.99067C20.1929 10.7487 19.7855 11.5284 19.5925 12.568C19.1959 14.7446 20.536 17.0729 22.6372 17.8417L22.9267 17.9608V28.0102V38.0704L22.4014 38.4061C20.418 39.7055 20.6217 42.7918 22.7552 43.9289C23.2269 44.1779 23.4306 44.2213 24.2132 44.2213C24.9529 44.2213 25.2102 44.1779 25.5747 43.9722C26.2823 43.5932 26.754 43.1167 27.0756 42.4561C27.4937 41.6006 27.4937 40.4744 27.0863 39.6731C26.8183 39.1424 25.9392 38.2111 25.7141 38.2111C25.639 38.2111 25.6069 34.9191 25.6069 28.1076V18.0042L26.2823 17.6901C27.1292 17.3003 28.1477 16.2932 28.5336 15.4485C28.6944 15.1128 28.8767 14.4955 28.9517 14.084C29.5092 10.8028 26.4002 7.90066 23.1947 8.69118ZM25.0494 11.4093C26.7754 12.1456 26.7754 14.5713 25.0494 15.3077C24.0202 15.7409 22.8516 15.2644 22.3799 14.2248C21.5973 12.5138 23.3341 10.6946 25.0494 11.4093Z" fill="black"/>
<path d="M14.8646 17.1053C12.4525 17.4843 11.359 20.4948 12.9778 22.3466C13.2136 22.6173 13.621 22.9638 13.8783 23.1154L14.3608 23.397L14.3286 31.9736L14.2964 40.5502L14.007 40.9942C13.546 41.6981 13.0207 41.893 11.6055 41.893H10.4263L10.2869 41.4815C9.69726 39.8355 8.01411 38.5793 6.22376 38.4602C3.16836 38.2436 0.809807 40.7884 1.17431 43.8964C1.48521 46.452 4.00457 48.3471 6.5561 47.9464C8.07844 47.7082 9.62222 46.5386 10.1797 45.2067L10.4263 44.6002H11.4447C12.0129 44.6002 12.7527 44.5569 13.1064 44.4919C14.5966 44.2429 15.8938 43.2683 16.5263 41.9146L16.8694 41.1891L16.9016 32.2118L16.923 23.2454L17.5555 22.6173C18.0165 22.1625 18.2309 21.8484 18.381 21.4153C19.1744 18.9896 17.3197 16.7155 14.8646 17.1053ZM6.82412 41.3624C8.1106 41.9904 8.30357 43.8964 7.16718 44.8493C5.83781 45.9864 3.80088 44.9684 3.79016 43.1708C3.79016 42.6618 3.84376 42.4777 4.1225 42.0879C4.75502 41.1674 5.82709 40.8859 6.82412 41.3624Z" fill="black"/>
<path d="M32.0608 17.116C30.7315 17.3218 29.713 18.3397 29.4557 19.7367C29.252 20.8845 29.8202 22.2815 30.7636 22.9096L31.1817 23.1911V31.811C31.1817 41.2106 31.171 41.0915 31.7928 42.2394C32.168 42.9216 33.0793 43.788 33.7761 44.1128C34.4837 44.4377 35.4593 44.6001 36.7136 44.6001H37.6892L38.043 45.3148C39.7154 48.7477 44.5076 48.8993 46.4373 45.5747C47.7988 43.214 46.8125 40.0953 44.3146 38.8932C41.9453 37.7562 39.1472 38.7741 38.0323 41.189L37.6999 41.8929H36.5635C35.2127 41.8929 34.7088 41.7088 34.2264 41.0699L33.9155 40.6692L33.8833 31.9735L33.8619 23.2886L34.2371 23.0503C34.7839 22.7038 35.4271 21.9133 35.6201 21.3502C35.9739 20.3214 35.738 19.0003 35.0519 18.1773C34.4087 17.3759 33.1865 16.9536 32.0608 17.116ZM43.4248 41.4489C44.5933 42.2611 44.6898 43.9396 43.6177 44.8492C42.9638 45.4123 42.2026 45.4881 41.3878 45.0766C40.4873 44.6218 40.037 43.6363 40.2836 42.6834C40.4337 42.1311 40.8304 41.633 41.3557 41.3514C41.9024 41.0482 42.9102 41.1024 43.4248 41.4489Z" fill="black"/>
</svg>
